<svg xmlns="http://www.w3.org/2000/svg" xmlns:xlink="http://www.w3.org/1999/xlink" version="1.1" x="0px" y="0px" viewBox="0 0 100 125" enable-background="new 0 0 100 100" xml:space="preserve"><path d="M90.933,9.462c-0.015,4.642-3.784,8.413-8.438,8.435c-4.655-0.023-8.427-3.793-8.434-8.435  c0.007-4.669,3.779-8.437,8.434-8.43C87.149,1.025,90.918,4.793,90.933,9.462L90.933,9.462z"/><path d="M58.057,17.473l0.014-0.007c4.185-1.597,6.433-6.195,5.043-10.563c-1.436-4.482-6.201-6.963-10.644-5.53  C51.33,1.74,50.323,2.35,49.48,3.108c-0.351,0.348-2.185,2.101-3.875,2.547c-2.501,0.651-5.409-1.08-5.409-1.08  s0.857,4.617,3.406,7.875C50.016,20.004,56.727,18.098,58.057,17.473z"/><path d="M85.871,20.511l-18.34,20.722c-5.141-6.344-15.58-19.22-15.677-19.311c-1.71-1.916-3.016-2.742-3.379-2.945  c-3.4-2.386-9.736-0.411-8.878,5.7c0.149,1.064,3.882,13.744-0.521,27.211C32.027,73.447,1.486,98.725,1.486,98.725h70.756  l-14.42-57.541l6.658,8.233c0.743,0.92,1.831,1.397,2.928,1.397c0.83,0,1.932-0.324,2.815-1.268l9.752-11.018  c0.024,2.764,0.293,4.699,0.293,4.699l8.326,51.505c0.006,2.351,2.153,4.253,4.809,4.253c2.657-0.007,4.802-1.912,4.799-4.261  l0.061-30h0.078V52.837V23.49C98.351,17.178,92.281,13.401,85.871,20.511z"/></svg>